
<svg
      width="31"
      height="20"
      viewBox="0 0 31 20"
      fill="none"
      xmlns="http://www.w3.org/2000/svg"
    >
      <path
        fillRule="evenodd"
        clipRule="evenodd"
        d="M11.5858 8.36396C10.8047 9.14501 10.8047 10.4113 11.5858 11.1924L15.4749 15.0815L11.1924 19.364C10.4113 20.145 9.14501 20.145 8.36396 19.364L0.585786 11.5858C-0.195262 10.8047 -0.195262 9.53841 0.585786 8.75736L8.36396 0.979186C9.14501 0.198137 10.4113 0.198137 11.1924 0.979186L15.0815 4.86827L11.5858 8.36396ZM15.0815 4.86827L19.364 0.585786C20.145 -0.195262 21.4113 -0.195262 22.1924 0.585786L29.9706 8.36396C30.7516 9.14501 30.7516 10.4113 29.9706 11.1924L22.1924 18.9706C21.4113 19.7516 20.145 19.7516 19.364 18.9706L15.4749 15.0815L18.9706 11.5858C19.7516 10.8047 19.7516 9.53841 18.9706 8.75736L15.0815 4.86827Z"
        fill="url(#paint0_linear_6261_1459)"
      />
      <defs>
        <linearGradient
          id="paint0_linear_6261_1459"
          x1="5.67172"
          y1="5.77832"
          x2="13.1717"
          y2="13.7783"
          gradientUnits="userSpaceOnUse"
        >
          <stop stopColor="#FFAC28" />
          <stop offset="1" stopColor="#FFC328" />
        </linearGradient>
      </defs>
    </svg>